<svg xmlns="http://www.w3.org/2000/svg" width="500" height="500" style="width:100%;height:100%;transform:translate3d(0,0,0);content-visibility:visible" viewBox="0 0 500 500"><defs><mask id="g" mask-type="alpha"><use xmlns:ns1="http://www.w3.org/1999/xlink" ns1:href="#a"/></mask><mask id="f" mask-type="alpha"><use xmlns:ns2="http://www.w3.org/1999/xlink" ns2:href="#b"/></mask><mask id="e" mask-type="alpha"><use xmlns:ns3="http://www.w3.org/1999/xlink" ns3:href="#c"/></mask><g id="a" fill="#4BB3FD" style="display:block"><path d="M373.592 112.412a1.82 1.82 0 0 0-1.334-.598h-62.827c-1.041 0-1.886.912-1.886 2.037l-.124 272.676c0 .54.199 1.059.552 1.441a1.82 1.82 0 0 0 1.334.597h62.842c1.041 0 1.886-.912 1.886-2.038l.11-272.675c0-.54-.199-1.058-.553-1.44z"/><path fill-opacity=".5" d="M34.83-148.762a2 2 0 0 0-1.414-.586h-66.6a2 2 0 0 0-2 1.999l-.131 267.577a2 2 0 0 0 2 2H33.3a2 2 0 0 0 2-2l.116-267.576a2 2 0 0 0-.586-1.414z" style="mix-blend-mode:multiply" transform="matrix(.94335 0 0 1.01905 340.735 264.008)"/></g><g id="b" fill="#FFC738" style="display:block"><path d="M279.801 185.92h-63.253c-1.049 0-1.9.9-1.9 2.01l.047 199.01c0 .534.2 1.046.556 1.423.356.377.84.59 1.343.59h63.268c1.048 0 1.9-.901 1.9-2.012l-.061-199.01c0-.533-.2-1.045-.557-1.422a1.848 1.848 0 0 0-1.343-.59z"/><path fill-opacity=".5" d="M33.236-116.699h-66.6a2 2 0 0 0-2 2l.049 197.926a2.001 2.001 0 0 0 2 2.001H33.3a2 2 0 0 0 2-2l-.064-197.927a2 2 0 0 0-2-2z" style="mix-blend-mode:multiply" transform="matrix(.94975 0 0 1.00548 248.235 303.258)"/></g><g id="c" fill="#646E78" style="display:block"><path d="M187.54 267.765h-63.267a1.9 1.9 0 0 0-1.9 1.899l.06 117.259a1.9 1.9 0 0 0 1.9 1.9h63.28a1.9 1.9 0 0 0 1.9-1.9l-.074-117.258a1.899 1.899 0 0 0-1.9-1.9z"/><path fill-opacity=".5" d="M33.216-78.42h-66.6a2 2 0 0 0-2 1.998l.062 123.439a2 2 0 0 0 2 2h66.615a2 2 0 0 0 2-1.999l-.077-123.439a1.999 1.999 0 0 0-2-2z" style="mix-blend-mode:multiply" transform="translate(155.987 342.26) scale(.94994)"/></g><clipPath id="d"><path d="M0 0h500v500H0z"/></clipPath></defs><g clip-path="url(#d)"><g fill="#636D78" style="display:block"><path d="M187.54 267.765h-63.267a1.9 1.9 0 0 0-1.9 1.899l.06 117.259a1.9 1.9 0 0 0 1.9 1.9h63.28a1.9 1.9 0 0 0 1.9-1.9l-.074-117.258a1.899 1.899 0 0 0-1.9-1.9z"/><path fill-opacity=".5" d="M33.216-78.42h-66.6a2 2 0 0 0-2 1.998l.062 123.439a2 2 0 0 0 2 2h66.615a2 2 0 0 0 2-1.999l-.077-123.439a1.999 1.999 0 0 0-2-2z" style="mix-blend-mode:multiply" transform="translate(155.987 342.26) scale(.94994)"/></g><g mask="url(#e)" style="display:block"><path fill="#636D78" d="M203.538 267.765h-63.266a1.9 1.9 0 0 0-1.9 1.899l.06 117.259a1.9 1.9 0 0 0 1.9 1.9h63.28a1.9 1.9 0 0 0 1.9-1.9l-.074-117.258a1.899 1.899 0 0 0-1.9-1.9z"/></g><g fill="#FFC638" style="display:block"><path d="M279.801 185.92h-63.253c-1.049 0-1.9.9-1.9 2.01l.047 199.01c0 .534.2 1.046.556 1.423.356.377.84.59 1.343.59h63.268c1.048 0 1.9-.901 1.9-2.012l-.061-199.01c0-.533-.2-1.045-.557-1.422a1.848 1.848 0 0 0-1.343-.59z"/><path fill-opacity=".5" d="M33.236-116.699h-66.6a2 2 0 0 0-2 2l.049 197.926a2.001 2.001 0 0 0 2 2.001H33.3a2 2 0 0 0 2-2l-.064-197.927a2 2 0 0 0-2-2z" style="mix-blend-mode:multiply" transform="matrix(.94975 0 0 1.00548 248.235 303.258)"/></g><g mask="url(#f)" style="display:block"><path fill="#FFC638" d="M295.8 185.92h-63.254c-1.048 0-1.9.9-1.9 2.01l.047 199.01c0 .534.2 1.046.557 1.423.356.377.84.59 1.343.59h63.268c1.048 0 1.9-.901 1.9-2.012l-.062-199.01c0-.533-.2-1.045-.556-1.422a1.848 1.848 0 0 0-1.343-.59z"/></g><g fill="#4AB3FC" style="display:block"><path d="M373.592 112.412a1.82 1.82 0 0 0-1.334-.598h-62.827c-1.041 0-1.886.912-1.886 2.037l-.124 272.676c0 .54.199 1.059.552 1.441a1.82 1.82 0 0 0 1.334.597h62.842c1.041 0 1.886-.912 1.886-2.038l.11-272.675c0-.54-.199-1.058-.553-1.44z"/><path fill-opacity=".5" d="M34.83-148.762a2 2 0 0 0-1.414-.586h-66.6a2 2 0 0 0-2 1.999l-.131 267.577a2 2 0 0 0 2 2H33.3a2 2 0 0 0 2-2l.116-267.576a2 2 0 0 0-.586-1.414z" style="mix-blend-mode:multiply" transform="matrix(.94335 0 0 1.01905 340.735 264.008)"/></g><g mask="url(#g)" style="display:block"><path fill="#4AB3FC" d="M389.591 112.412a1.82 1.82 0 0 0-1.334-.598H325.43c-1.041 0-1.887.912-1.887 2.037l-.124 272.676c0 .54.2 1.059.553 1.441a1.82 1.82 0 0 0 1.334.597h62.842c1.041 0 1.886-.912 1.886-2.038l.11-272.675c0-.54-.2-1.058-.553-1.44z"/></g><path fill="none" stroke="#121330" stroke-linecap="round" stroke-linejoin="round" stroke-width="2.03" d="M-9.492 4.603h-18L-27.5 37.5h18.004l.004-32.897zm25-21.963h-18L-2.5 37.5h18.004l.004-54.86zm25-19.997h-18L22.5 37.5h18.004l.004-74.857z" style="display:block" transform="matrix(3.7 0 0 3.7 224.1 250)"/><path fill="none" stroke="#121330" stroke-linecap="round" stroke-linejoin="round" stroke-width="2.03" d="M-43.484-37.5v75H42.5" style="display:block" transform="matrix(3.7 0 0 3.7 250 250)"/><g opacity="0" style="display:block"><path d="M413.702 480.39h7.885v-33.717l10.498 33.718h6.96l10.715-33.718v33.718h8.374v-39.32h-13.377l-8.973 28.604-8.323-28.605H413.7v39.32zm-34.182-19.361c0-4.46.652-8.7 2.882-11.42 1.578-2.013 4.078-3.318 7.234-3.318 4.025 0 7.342 2.121 8.973 6.96.816 2.392.978 5.113.978 7.017 0 6.255-1.36 9.301-2.665 11.258-1.577 2.448-3.916 3.644-7.342 3.644-3.916 0-5.929-1.525-7.125-3.156-2.339-3.046-2.935-7.233-2.935-10.985zm-8.811.273c0 3.59.546 10.116 4.841 14.684 3.59 3.752 8.753 5.383 13.921 5.383 3.264 0 9.626-.705 13.977-5.6 3.208-3.59 4.95-9.681 4.95-15.393 0-3.86-.816-10.007-5.003-14.793-3.86-4.351-9.628-5.33-13.815-5.33-14.14 0-18.871 10.607-18.871 21.049zm-3.824-7.398c0-7.833-6.035-13.051-14.629-13.051-11.041 0-18.001 8.265-18.001 20.72 0 9.733 4.404 19.743 17.946 19.743 3.59 0 7.994-.817 11.476-4.407 3.155-3.264 3.37-6.905 3.534-9.243h-8.864c-.164 5.22-3.535 7.448-7.07 7.448-8.211 0-8.211-11.147-8.211-13.486 0-8.103 2.609-14.629 8.864-14.629 5.712 0 6.2 5.545 6.364 6.905h8.591zm-45.467 26.486h6.905v-7.233h-6.905v7.234zm-42.123 0h7.939v-32.63l15.228 32.63h11.585v-39.32h-7.833v30.944l-14.738-30.944h-12.18v39.32zm-34.837-19.361c0-4.46.653-8.7 2.883-11.42 1.577-2.013 4.078-3.318 7.233-3.318 4.025 0 7.343 2.121 8.973 6.96.817 2.392.979 5.113.979 7.017 0 6.255-1.36 9.301-2.665 11.258-1.578 2.448-3.917 3.644-7.342 3.644-3.917 0-5.927-1.525-7.123-3.156-2.338-3.046-2.938-7.233-2.938-10.985zm-8.81.273c0 3.59.545 10.116 4.841 14.684 3.59 3.752 8.753 5.383 13.92 5.383 3.265 0 9.629-.705 13.98-5.6 3.208-3.59 4.948-9.681 4.948-15.393 0-3.86-.817-10.007-5.004-14.793-3.86-4.351-9.628-5.33-13.814-5.33-14.141 0-18.872 10.607-18.872 21.049zm-3.824-7.398c0-7.833-6.035-13.051-14.63-13.051-11.04 0-18 8.265-18 20.72 0 9.733 4.403 19.743 17.945 19.743 3.59 0 7.995-.817 11.476-4.407 3.156-3.264 3.37-6.905 3.535-9.243h-8.864c-.165 5.22-3.535 7.448-7.07 7.448-8.212 0-8.212-11.147-8.212-13.486 0-8.103 2.61-14.629 8.865-14.629 5.711 0 6.2 5.545 6.363 6.905h8.592zm-46.231 26.486h8.432v-39.429h-8.432v39.43zm-30.178-32.847c4.84-.218 7.072.053 8.812.543 5.276 1.47 7.178 6.581 7.178 12.129 0 1.903-.218 7.777-3.535 11.094-2.447 2.447-5.547 2.718-9.137 2.718a63.98 63.98 0 0 1-3.318-.109v-26.375zm-8.538 32.848h12.237c3.97 0 5.6-.162 7.07-.435 7.45-1.36 13.923-7.669 13.923-19.741 0-5.603-1.742-11.803-6.69-15.446-4.73-3.481-11.367-3.537-13.542-3.537l-12.998-.053v39.212zm-27.971-33.121h5.656c2.664 0 4.242 0 5.547.925.76.49 2.068 1.74 2.068 4.404 0 2.774-1.578 4.134-2.177 4.569-1.36 1.087-3.317 1.087-4.296 1.087h-6.798V447.27zm-8.321 33.12h8.594v-15.88h7.395c1.413 0 3.482 0 4.243 2.23.543 1.522 1.74 11.476 2.12 13.65h9.3c-.435-.652-.761-1.09-1.196-2.829-.273-1.087-.596-2.99-1.196-7.612-.708-5.113-1.143-8.485-7.071-9.03 1.903-.543 8.214-2.282 8.214-9.624 0-2.556-.981-5.439-3.428-7.56-3.156-2.72-7.557-2.72-11.909-2.665h-15.066v39.32zm-34.182-19.361c0-4.46.653-8.7 2.883-11.42 1.577-2.013 4.078-3.318 7.233-3.318 4.025 0 7.342 2.121 8.973 6.96.817 2.392.979 5.113.979 7.017 0 6.255-1.36 9.301-2.665 11.258-1.578 2.448-3.917 3.644-7.343 3.644-3.916 0-5.928-1.525-7.124-3.156-2.339-3.046-2.936-7.233-2.936-10.985zm-8.81.273c0 3.59.543 10.116 4.838 14.684 3.59 3.752 8.756 5.383 13.924 5.383 3.264 0 9.625-.705 13.976-5.6 3.209-3.59 4.95-9.681 4.95-15.393 0-3.86-.816-10.007-5.003-14.793-3.86-4.351-9.628-5.33-13.815-5.33-14.14 0-18.87 10.607-18.87 21.049zM41.734 480.39h25.452v-6.69H50.328v-32.577h-8.594v39.268z" class="com" opacity="1"/></g></g></svg>